<svg width="16" height="17" viewBox="0 0 16 17" fill="none" xmlns="http://www.w3.org/2000/svg">
<path fill-rule="evenodd" clip-rule="evenodd" d="M14 4.522C14.1873 4.70966 14.2925 4.96405 14.2923 5.22921C14.2921 5.49437 14.1866 5.74861 13.999 5.936L7.46899 12.466C7.28671 12.6486 7.04093 12.7536 6.78302 12.7592C6.5251 12.7648 6.27501 12.6705 6.08499 12.496L2.82499 9.51C2.62952 9.33072 2.51329 9.08113 2.50185 8.81614C2.49041 8.55115 2.5847 8.29247 2.76399 8.097C2.94328 7.90154 3.19287 7.7853 3.45786 7.77386C3.72284 7.76242 3.98152 7.85672 4.17699 8.036L6.37799 10.053C6.47294 10.1399 6.59778 10.1869 6.7265 10.1841C6.85522 10.1813 6.9779 10.129 7.06899 10.038L12.585 4.523C12.7725 4.33553 13.0268 4.23022 13.292 4.23022C13.5572 4.23022 13.8115 4.33553 13.999 4.523L14 4.522Z" fill="#168457"/>
</svg>
