<svg width="26" height="24" viewBox="0 0 26 24" fill="none" xmlns="http://www.w3.org/2000/svg">
<path d="M25.9284 12C25.9284 12.3819 25.7653 12.7482 25.475 13.0182C25.1846 13.2883 24.7909 13.44 24.3803 13.44H14.5757V22.56C14.5757 22.9419 14.4126 23.3082 14.1223 23.5782C13.832 23.8483 13.4382 24 13.0276 24C12.617 24 12.2233 23.8483 11.9329 23.5782C11.6426 23.3082 11.4795 22.9419 11.4795 22.56V13.44H1.67492C1.26434 13.44 0.870581 13.2883 0.580257 13.0182C0.289933 12.7482 0.126831 12.3819 0.126831 12C0.126831 11.6181 0.289933 11.2518 0.580257 10.9818C0.870581 10.7117 1.26434 10.56 1.67492 10.56H11.4795V1.44C11.4795 1.05809 11.6426 0.691819 11.9329 0.421766C12.2233 0.151714 12.617 0 13.0276 0C13.4382 0 13.832 0.151714 14.1223 0.421766C14.4126 0.691819 14.5757 1.05809 14.5757 1.44V10.56H24.3803C24.7909 10.56 25.1846 10.7117 25.475 10.9818C25.7653 11.2518 25.9284 11.6181 25.9284 12Z" fill="#00898A"/>
</svg>
