<svg width="45" height="45" viewBox="0 0 45 45" fill="none" xmlns="http://www.w3.org/2000/svg">
<path d="M22.2291 44.3446C34.2865 44.3446 44.0609 34.5702 44.0609 22.5128C44.0609 10.4554 34.2865 0.680969 22.2291 0.680969C10.1717 0.680969 0.397263 10.4554 0.397263 22.5128C0.397263 34.5702 10.1717 44.3446 22.2291 44.3446Z" fill="#EFFAEC"/>
<path d="M11.8709 15.4612C12.3665 15.4612 12.8602 15.5137 13.3531 15.6169C13.8459 15.72 14.2724 15.8711 14.6335 16.0664L14.3489 16.9655C13.9822 16.7757 13.6073 16.6338 13.225 16.539C12.8427 16.4441 12.3914 16.3971 11.8718 16.3971C10.9359 16.3971 10.164 16.7702 9.55506 17.5163C8.94617 18.2625 8.64218 19.2325 8.64218 20.4254V22.2604C9.00881 21.7464 9.48321 21.3355 10.0645 21.026C10.6448 20.7174 11.2878 20.5626 11.9916 20.5626C13.1716 20.5626 14.0928 20.9477 14.7532 21.7187C15.4137 22.4897 15.7444 23.5325 15.7444 24.847C15.7444 26.1505 15.3732 27.2025 14.6298 28.0039C13.8864 28.8053 12.9091 29.206 11.6977 29.206C10.4983 29.206 9.50808 28.75 8.72416 27.839C7.94024 26.928 7.54967 25.6945 7.54967 24.1414V20.5258C7.54967 19.0455 7.9642 17.8314 8.79325 16.8826C9.62231 15.9337 10.6476 15.4612 11.8709 15.4612ZM11.6876 21.4626C10.9654 21.4626 10.3279 21.657 9.7743 22.0448C9.22068 22.4335 8.843 22.9273 8.64126 23.527V24.2243C8.64126 25.4541 8.92867 26.437 9.50348 27.1748C10.0783 27.9127 10.8097 28.2802 11.6968 28.2802C12.6014 28.2802 13.319 27.956 13.8487 27.3075C14.3774 26.659 14.6418 25.8391 14.6418 24.8479C14.6418 23.772 14.3921 22.9383 13.8938 22.3479C13.3964 21.7574 12.6603 21.4626 11.6876 21.4626Z" fill="#00B956"/>
<path d="M11.6968 29.5589C10.3961 29.5589 9.30546 29.0577 8.45613 28.0693C7.61971 27.0966 7.19597 25.7756 7.19597 24.1414V20.5258C7.19597 18.9644 7.64366 17.661 8.52614 16.6505C9.42153 15.627 10.5463 15.1075 11.87 15.1075C12.3868 15.1075 12.91 15.1628 13.4249 15.2715C13.9463 15.382 14.4097 15.545 14.8003 15.756C14.9495 15.8361 15.0195 16.0112 14.9688 16.1724L14.6842 17.0714C14.6529 17.17 14.5792 17.2501 14.4834 17.2907C14.3876 17.3303 14.2789 17.3257 14.1868 17.2778C13.8459 17.1018 13.494 16.9683 13.1394 16.8798C12.7857 16.7923 12.3591 16.7481 11.8709 16.7481C11.0391 16.7481 10.3703 17.0724 9.82684 17.7374C9.27414 18.4154 8.9941 19.3191 8.9941 20.4236V21.3411C9.26308 21.0997 9.56615 20.8906 9.89777 20.7137C10.5269 20.3794 11.2307 20.2089 11.9898 20.2089C13.273 20.2089 14.2918 20.6391 15.0195 21.4885C15.7334 22.3212 16.0954 23.4515 16.0954 24.8471C16.0954 26.2362 15.6892 27.3794 14.8868 28.2434C14.0781 29.1167 13.0049 29.5589 11.6968 29.5589ZM11.8709 15.814C10.7434 15.814 9.82408 16.2396 9.05766 17.1156C8.29032 17.9935 7.90159 19.1404 7.90159 20.5268V24.1424C7.90159 25.6024 8.2673 26.7695 8.99042 27.6106C9.70985 28.4479 10.5951 28.8551 11.6968 28.8551C12.8161 28.8551 13.6902 28.4986 14.3701 27.7663C15.0471 27.0367 15.3907 26.0547 15.3907 24.8489C15.3907 23.6265 15.0858 22.651 14.4852 21.95C13.8901 21.2554 13.074 20.9173 11.9907 20.9173C11.3477 20.9173 10.7554 21.0592 10.2294 21.3392C10.0534 21.4332 9.88764 21.5364 9.73288 21.6515C10.3077 21.2932 10.9645 21.1117 11.6876 21.1117C12.7645 21.1117 13.5972 21.4516 14.1637 22.1222C14.7146 22.7753 14.9946 23.6937 14.9946 24.8498C14.9946 25.9193 14.7008 26.8221 14.1214 27.5323C13.5244 28.2637 12.7083 28.6349 11.6968 28.6349C10.6992 28.6349 9.86829 28.2167 9.22531 27.3932C8.60352 26.5964 8.28848 25.5306 8.28848 24.2262V23.5289C8.28848 23.4902 8.29493 23.4524 8.30691 23.4165C8.40455 23.1254 8.54088 22.8555 8.71314 22.6077C8.65419 22.6215 8.59339 22.6187 8.53351 22.5985C8.38705 22.5515 8.28848 22.4161 8.28848 22.2632V20.4282C8.28848 19.157 8.62195 18.1041 9.28059 17.2971C9.95673 16.4681 10.8282 16.048 11.8709 16.048C12.4153 16.048 12.8999 16.0996 13.3089 16.2009C13.5871 16.27 13.8634 16.363 14.1343 16.4791L14.2061 16.2543C13.9334 16.1346 13.623 16.0379 13.2812 15.966C12.8133 15.8638 12.3398 15.814 11.8709 15.814ZM8.9941 23.5869V24.2243C8.9941 25.3675 9.2594 26.2878 9.7817 26.9575C10.2902 27.6097 10.9166 27.9275 11.6968 27.9275C12.4982 27.9275 13.1127 27.652 13.576 27.0846C14.0559 26.496 14.2899 25.7636 14.2899 24.848C14.2899 23.8623 14.0661 23.0977 13.6258 22.5745C13.1937 22.0633 12.56 21.8146 11.6876 21.8146C11.0345 21.8146 10.4753 21.984 9.97699 22.3332C9.4989 22.6694 9.17649 23.0802 8.9941 23.5869Z" fill="#00B956"/>
<path d="M26.3949 24.2981C26.3949 25.8217 26.0264 27.0211 25.2895 27.8952C24.5525 28.7704 23.542 29.207 22.257 29.207C20.9719 29.207 19.9568 28.7685 19.2107 27.8906C18.4636 27.0128 18.0914 25.8152 18.0914 24.2981V20.3711C18.0914 18.8604 18.4617 17.6647 19.2014 16.7831C19.9421 15.9016 20.9544 15.4612 22.2386 15.4612C23.5227 15.4612 24.5369 15.9016 25.2803 16.7831C26.0237 17.6638 26.3949 18.8595 26.3949 20.3711V24.2981ZM25.2941 20.1961C25.2941 19.0271 25.0297 18.1022 24.5 17.4206C23.9713 16.738 23.2168 16.3972 22.2386 16.3972C21.2603 16.3972 20.5058 16.7398 19.9762 17.4252C19.4465 18.1105 19.183 19.0345 19.183 20.1961V24.463C19.183 25.619 19.4502 26.5439 19.9863 27.2384C20.5215 27.9321 21.2778 28.2794 22.257 28.2794C23.2297 28.2794 23.9787 27.9339 24.5046 27.2431C25.0306 26.5522 25.2932 25.6255 25.2932 24.463L25.2941 20.1961Z" fill="#00B956"/>
<path d="M22.2572 29.5589C20.8699 29.5589 19.7544 29.0743 18.9419 28.1181C18.1432 27.1795 17.7379 25.8935 17.7379 24.2971V20.3701C17.7379 18.7811 18.1395 17.4979 18.9308 16.5556C19.7378 15.5957 20.8506 15.1084 22.2379 15.1084C23.6251 15.1084 24.7388 15.5948 25.5485 16.5556C26.3435 17.497 26.747 18.7811 26.747 20.3701V24.2971C26.747 25.899 26.3472 27.185 25.5578 28.1209C24.7554 29.0762 23.6445 29.5589 22.2572 29.5589ZM22.2388 15.814C21.0523 15.814 20.1468 16.2046 19.4716 17.0097C18.7899 17.8213 18.4445 18.9515 18.4445 20.3701V24.2971C18.4445 25.7212 18.7927 26.8534 19.4799 27.6612C20.1615 28.4636 21.0707 28.8532 22.2581 28.8532C23.4446 28.8532 24.3483 28.4654 25.0216 27.6668C25.6996 26.8617 26.0441 25.7277 26.0441 24.2971V20.3701C26.0441 18.9515 25.6969 17.8213 25.0124 17.0106C24.3317 16.2055 23.4252 15.814 22.2388 15.814ZM22.2572 28.6331C21.1674 28.6331 20.3098 28.236 19.7065 27.454C19.1252 26.7004 18.8304 25.6945 18.8304 24.4629V20.196C18.8304 18.9589 19.1224 17.9539 19.6973 17.2096C20.2942 16.4367 21.149 16.0443 22.2379 16.0443C23.3267 16.0443 24.1815 16.4349 24.7775 17.2041C25.3533 17.9456 25.6453 18.9525 25.6453 20.196V24.4629C25.6453 25.6982 25.356 26.706 24.784 27.4567C24.1917 28.237 23.3405 28.6331 22.2572 28.6331ZM22.2388 16.7499C21.3673 16.7499 20.7188 17.041 20.2555 17.6407C19.7774 18.2588 19.536 19.1192 19.536 20.196V24.4629C19.536 25.5342 19.7811 26.3955 20.2656 27.0229C20.7345 27.6318 21.3858 27.9265 22.2572 27.9265C23.1213 27.9265 23.7652 27.6327 24.2248 27.0284C24.7011 26.4029 24.9415 25.5398 24.9415 24.462V20.1951C24.9415 19.1118 24.6992 18.2505 24.2221 17.6361C23.7587 17.0401 23.1102 16.7499 22.2388 16.7499Z" fill="#00B956"/>
<path d="M33.9293 22.2245H37.9944V23.2525H33.9293V27.6751H32.8192V23.2525H28.8361V22.2245H32.8183V17.9484H33.9283L33.9293 22.2245Z" fill="#00B956"/>
<path d="M33.9293 28.027H32.8192C32.6249 28.027 32.4664 27.8694 32.4664 27.6741V23.6044H28.837C28.6426 23.6044 28.4842 23.4469 28.4842 23.2516V22.2236C28.4842 22.0292 28.6417 21.8708 28.837 21.8708H32.4664V17.9475C32.4664 17.7531 32.6239 17.5947 32.8192 17.5947H33.9293C34.1236 17.5947 34.2821 17.7522 34.2821 17.9475V21.8708H37.9944C38.1888 21.8708 38.3472 22.0283 38.3472 22.2236V23.2516C38.3472 23.446 38.1897 23.6044 37.9944 23.6044H34.2821V27.6741C34.2811 27.8694 34.1236 28.027 33.9293 28.027ZM33.1711 27.3223H33.5755V23.2525C33.5755 23.0581 33.733 22.8997 33.9283 22.8997H37.6407V22.5773H33.9283C33.734 22.5773 33.5755 22.4198 33.5755 22.2245V18.3012H33.1711V22.2245C33.1711 22.4189 33.0136 22.5773 32.8183 22.5773H29.1889V22.8997H32.8183C33.0127 22.8997 33.1711 23.0572 33.1711 23.2525V27.3223Z" fill="#00B956"/>
</svg>
