<svg width="94" height="94" viewBox="0 0 94 94" fill="none" xmlns="http://www.w3.org/2000/svg">
<path d="M85.7931 22.1811H74.6681C76.3879 19.8947 77.4095 17.0547 77.4095 13.9798C77.4095 6.4428 71.2773 0.310547 63.7402 0.310547C59.1998 0.310547 55.8522 1.93734 53.2048 5.42951C50.9893 8.35147 49.3699 12.4314 47.3378 17.5853C45.3057 12.4304 43.6863 8.35147 41.4709 5.42951C38.8225 1.93734 35.4749 0.310547 30.9354 0.310547C23.3983 0.310547 17.2661 6.4428 17.2661 13.9798C17.2661 17.0547 18.2877 19.8947 20.0075 22.1811H8.88249C4.36044 22.1811 0.681274 25.8602 0.681274 30.3823V35.8494C0.681274 39.4135 2.9667 42.4524 6.14844 43.5808V85.4224C6.14844 89.9445 9.82761 93.6236 14.3497 93.6236H80.325C84.8471 93.6236 88.5263 89.9445 88.5263 85.4224V43.5808C91.708 42.4524 93.9934 39.4135 93.9934 35.8494V30.3823C93.9943 25.8602 90.3152 22.1811 85.7931 22.1811ZM52.3554 19.7648C56.5431 9.14 58.1358 5.77864 63.7402 5.77864C68.2623 5.77864 71.9414 9.4578 71.9414 13.9798C71.9414 18.5019 68.2623 22.1811 63.7402 22.1811H51.3993C51.7346 21.34 52.0542 20.5303 52.3554 19.7648ZM30.9345 5.77864C36.5389 5.77864 38.1307 9.14 42.3192 19.7648C42.6214 20.5303 42.9401 21.34 43.2754 22.1811H30.9345C26.4124 22.1811 22.7333 18.5019 22.7333 13.9798C22.7333 9.4578 26.4124 5.77864 30.9345 5.77864ZM36.4025 88.1565H14.3497C12.8426 88.1565 11.6156 86.9304 11.6156 85.4224V44.0516H36.4016L36.4025 88.1565ZM36.4025 38.5835H8.88249C7.37544 38.5835 6.14844 37.3574 6.14844 35.8494V30.3823C6.14844 28.8752 7.37452 27.6482 8.88249 27.6482H36.4025V38.5835ZM52.805 88.1565H41.8697V27.6482C42.4427 27.6482 49.6628 27.6482 52.805 27.6482V88.1565ZM83.0591 85.4233C83.0591 86.9304 81.833 88.1574 80.325 88.1574H58.2722V44.0516H83.0582V85.4233H83.0591ZM88.5272 35.8504C88.5272 37.3574 87.3011 38.5844 85.7931 38.5844H58.2731V27.6482H85.7931C87.3002 27.6482 88.5272 28.8743 88.5272 30.3823V35.8504Z" fill="#00B956" fill-opacity="0.18"/>
</svg>
