<svg width="44" height="45" viewBox="0 0 44 45" fill="none" xmlns="http://www.w3.org/2000/svg">
<path d="M21.9908 44.3446C34.0482 44.3446 43.8226 34.5702 43.8226 22.5128C43.8226 10.4554 34.0482 0.680969 21.9908 0.680969C9.93344 0.680969 0.158997 10.4554 0.158997 22.5128C0.158997 34.5702 9.93344 44.3446 21.9908 44.3446Z" fill="#EFFAEC"/>
<path d="M35.1152 26.0805C35.6983 25.3371 35.9774 24.5403 35.9415 23.7205C35.9056 22.8168 35.5012 22.1093 35.1686 21.6755C35.5555 20.7119 35.7038 19.1966 34.4133 18.0193C33.4681 17.1571 31.8625 16.7711 29.6388 16.878C28.0756 16.9489 26.7675 17.2409 26.7132 17.2529H26.7076C26.4101 17.3063 26.0951 17.3717 25.7745 17.4436C25.7505 17.0631 25.8159 16.118 26.5179 13.9892C27.3506 11.456 27.3027 9.5178 26.3631 8.22171C25.3765 6.86021 23.8004 6.75336 23.3371 6.75336C22.8912 6.75336 22.4813 6.93759 22.1893 7.27658C21.5297 8.04392 21.6062 9.45885 21.69 10.1129C20.9052 12.2178 18.7054 17.3782 16.8446 18.8115C16.8087 18.8355 16.7792 18.865 16.7497 18.8944C16.2026 19.4711 15.8341 20.0956 15.5845 20.6428C15.2335 20.4521 14.8355 20.3453 14.4072 20.3453H10.7805C9.41352 20.3453 8.30719 21.4571 8.30719 22.8186V32.4799C8.30719 33.8469 9.41905 34.9533 10.7805 34.9533H14.4072C14.936 34.9533 15.4297 34.7865 15.8341 34.501L17.2315 34.6677C17.4452 34.6972 21.2506 35.1789 25.1573 35.1016C25.8648 35.155 26.5308 35.1845 27.1489 35.1845C28.2128 35.1845 29.1405 35.1016 29.9133 34.9348C31.7326 34.5479 32.9753 33.7751 33.6054 32.6402C34.0872 31.7724 34.0872 30.9102 34.0098 30.363C35.1926 29.2926 35.4008 28.1099 35.3593 27.2771C35.3344 26.7944 35.2276 26.3836 35.1152 26.0805ZM10.7796 33.3458C10.2978 33.3458 9.91187 32.9534 9.91187 32.4781V22.8103C9.91187 22.3286 10.3043 21.9426 10.7796 21.9426H14.4063C14.8881 21.9426 15.274 22.335 15.274 22.8103V32.4716C15.274 32.9534 14.8816 33.3394 14.4063 33.3394H10.7796V33.3458ZM33.5925 25.385C33.3429 25.6466 33.295 26.0446 33.4856 26.3541C33.4856 26.3596 33.7297 26.776 33.7592 27.3471C33.8007 28.1264 33.4267 28.8155 32.6418 29.4041C32.3627 29.6178 32.2494 29.9872 32.3683 30.3197C32.3683 30.3253 32.6243 31.1101 32.208 31.8535C31.81 32.5674 30.9239 33.0787 29.5799 33.3633C28.5039 33.5954 27.0411 33.6369 25.2457 33.4941C25.2218 33.4941 25.1923 33.4941 25.1628 33.4941C21.34 33.577 17.4756 33.0777 17.4333 33.0722H17.4277L16.8271 33.0013C16.8631 32.8346 16.8806 32.6568 16.8806 32.4781V22.8103C16.8806 22.5543 16.8391 22.3046 16.7673 22.0734C16.8741 21.6755 17.1716 20.7893 17.8736 20.0339C20.5431 17.9171 23.1528 10.777 23.2661 10.4675C23.314 10.3423 23.326 10.2059 23.3021 10.0696C23.2007 9.40358 23.2367 8.58926 23.3794 8.34515C23.6945 8.35067 24.5447 8.44003 25.056 9.14749C25.6621 9.98576 25.6391 11.4845 24.985 13.4696C23.9865 16.4957 23.9027 18.0893 24.694 18.7913C25.0864 19.1422 25.6096 19.1597 25.99 19.0234C26.353 18.9405 26.6975 18.8686 27.0245 18.8152C27.0485 18.8097 27.078 18.8032 27.1019 18.7977C28.9267 18.3998 32.1969 18.1557 33.3327 19.1901C34.2963 20.0698 33.6118 21.2351 33.5345 21.3604C33.3143 21.693 33.3797 22.1278 33.6772 22.3949C33.6828 22.4004 34.3073 22.989 34.3368 23.7803C34.3598 24.3091 34.1102 24.8498 33.5925 25.385Z" fill="#00B956"/>
</svg>
