<svg width="99" height="93" viewBox="0 0 99 93" fill="none" xmlns="http://www.w3.org/2000/svg">
<path d="M70.8697 -0.00109863C69.5303 -0.00109863 68.2379 0.733077 67.5903 2.00614L24.4821 86.7956C23.5637 88.6002 24.285 90.8147 26.0914 91.734C27.8628 92.6358 30.1335 91.8768 31.028 90.1247L74.1362 5.3371C74.582 4.46199 74.6585 3.4662 74.3563 2.53305C74.0514 1.60174 73.4048 0.842697 72.5287 0.398691C71.9954 0.127866 71.4298 -0.00109863 70.8697 -0.00109863Z" fill="#00B956" fill-opacity="0.18"/>
<path d="M20.5545 6.56781C9.60355 6.56781 0.695801 15.4756 0.695801 26.4265C0.695801 37.3774 9.60355 46.287 20.5545 46.287C31.5054 46.287 40.4131 37.3774 40.4131 26.4265C40.4131 15.4756 31.5054 6.56781 20.5545 6.56781ZM20.5545 38.9406C13.654 38.9406 8.04031 33.3261 8.04031 26.4265C8.04031 19.5269 13.6549 13.9123 20.5545 13.9123C27.455 13.9123 33.0686 19.5269 33.0686 26.4265C33.0686 33.3261 27.455 38.9406 20.5545 38.9406Z" fill="#00B956" fill-opacity="0.18"/>
<path d="M78.3264 45.8476C67.3754 45.8476 58.4677 54.7553 58.4677 65.7063C58.4677 76.6572 67.3754 85.5649 78.3264 85.5649C89.2773 85.5649 98.185 76.6572 98.185 65.7063C98.185 54.7553 89.2773 45.8476 78.3264 45.8476ZM78.3264 78.2204C71.4258 78.2204 65.8122 72.6059 65.8122 65.7063C65.8122 58.8067 71.4268 53.1921 78.3264 53.1921C85.2259 53.1921 90.8405 58.8067 90.8405 65.7063C90.8405 72.6059 85.2259 78.2204 78.3264 78.2204Z" fill="#00B956" fill-opacity="0.18"/>
</svg>
