<svg width="45" height="45" viewBox="0 0 45 45" fill="none" xmlns="http://www.w3.org/2000/svg">
<path d="M22.6077 44.3446C34.6651 44.3446 44.4396 34.5702 44.4396 22.5128C44.4396 10.4554 34.6651 0.680969 22.6077 0.680969C10.5503 0.680969 0.775909 10.4554 0.775909 22.5128C0.775909 34.5702 10.5503 44.3446 22.6077 44.3446Z" fill="#EFFAEC"/>
<path d="M27.2566 12.5217C26.9664 12.5217 26.6855 12.6811 26.5455 12.9574L17.1965 31.3459C16.9975 31.7374 17.1541 32.2173 17.5456 32.4172C17.9297 32.6125 18.4225 32.4486 18.616 32.0681L27.965 13.6806C28.0617 13.4908 28.0783 13.2752 28.0129 13.0726C27.9466 12.8709 27.8065 12.706 27.6168 12.6102C27.5007 12.5503 27.3782 12.5217 27.2566 12.5217Z" fill="#00B956"/>
<path d="M16.3439 13.9468C13.9691 13.9468 12.0374 15.8785 12.0374 18.2533C12.0374 20.6281 13.9691 22.5607 16.3439 22.5607C18.7187 22.5607 20.6504 20.6281 20.6504 18.2533C20.6504 15.8785 18.7187 13.9468 16.3439 13.9468ZM16.3439 20.967C14.847 20.967 13.6301 19.7493 13.6301 18.2533C13.6301 16.7573 14.8479 15.5395 16.3439 15.5395C17.8399 15.5395 19.0577 16.7573 19.0577 18.2533C19.0577 19.7493 17.8408 20.967 16.3439 20.967Z" fill="#00B956"/>
<path d="M28.8731 22.4649C26.4983 22.4649 24.5666 24.3966 24.5666 26.7714C24.5666 29.1462 26.4983 31.0779 28.8731 31.0779C31.2479 31.0779 33.1796 29.1462 33.1796 26.7714C33.1805 24.3975 31.2479 22.4649 28.8731 22.4649ZM28.8731 29.4861C27.3762 29.4861 26.1593 28.2683 26.1593 26.7723C26.1593 25.2754 27.3771 24.0585 28.8731 24.0585C30.3691 24.0585 31.5869 25.2763 31.5869 26.7723C31.5878 28.2683 30.37 29.4861 28.8731 29.4861Z" fill="#00B956"/>
</svg>
